<svg viewBox="0 0 59 36" fill="none" xmlns="http://www.w3.org/2000/svg"><path d="M15.94 21.3255C14.8482 23.2959 12.753 24.6424 10.3407 24.6424C6.81061 24.6424 3.9512 21.783 3.9512 18.2529C3.9512 14.7228 6.81061 11.8634 10.3407 11.8634C12.753 11.8634 14.8534 13.1995 15.94 15.1803C16.6262 14.0054 17.692 13.0799 18.9762 12.5705C17.1253 9.76822 13.9488 7.91738 10.3407 7.91738C6.49867 7.91738 3.14536 10.0126 1.36212 13.1215C0.49389 14.6344 -7.62939e-06 16.3865 -7.62939e-06 18.2581V35.477C0.374317 35.4874 3.9252 35.5498 3.9512 33.4494V26.3841C5.70845 27.7722 7.92839 28.604 10.3459 28.604C13.954 28.604 17.1305 26.7532 18.9814 23.951C17.692 23.4311 16.6262 22.5056 15.94 21.3255ZM36.8814 24.3513C33.7464 24.0757 31.2977 21.4607 31.2977 18.2633C31.2977 15.0659 33.7464 12.4405 36.8814 12.1753C37.6248 10.7716 38.6282 9.52906 39.8136 8.49447C39.0389 8.30211 38.2331 8.19813 37.4013 8.19813C34.0895 8.19813 31.1521 9.80461 29.3221 12.2689C27.4868 9.79421 24.5442 8.19293 21.2325 8.19293C20.3955 8.19293 19.5896 8.29691 18.815 8.48927C20.0056 9.51866 21.0038 10.7664 21.7524 12.1649C24.8822 12.4353 27.3361 15.0555 27.3361 18.2529C27.3361 21.4503 24.8822 24.0705 21.7524 24.3409C21.0038 25.7446 20.0056 26.9871 18.815 28.0217C19.5844 28.2089 20.3903 28.3181 21.2325 28.3181C24.5442 28.3181 27.4817 26.7116 29.3117 24.2421C31.1469 26.722 34.0843 28.3181 37.4013 28.3181C38.2331 28.3181 39.0441 28.2141 39.8136 28.0217C38.623 26.9975 37.6248 25.7498 36.8814 24.3513ZM54.6826 3.06676V10.1321C52.9253 8.74402 50.7002 7.91738 48.293 7.91738C44.6798 7.91738 41.5032 9.77341 39.6524 12.5705C40.9313 13.0799 42.0023 14.0054 42.6938 15.1803C43.7804 13.2099 45.8807 11.8686 48.2879 11.8686C51.8179 11.8686 54.6774 14.7228 54.6774 18.2581C54.6774 21.7882 51.8179 24.6424 48.2879 24.6424C45.8755 24.6424 43.7752 23.3063 42.6938 21.3255C42.0023 22.5056 40.9313 23.4259 39.6524 23.9354C41.5032 26.7428 44.6798 28.5884 48.293 28.5884C52.1351 28.5884 55.4884 26.4932 57.2664 23.3843C58.1347 21.8714 58.6286 20.1193 58.6286 18.2529V1.02878C58.2594 1.02878 54.7086 0.966388 54.6826 3.06676Z" fill="#111111"></path></svg>
